# xmcd
#
# Track frame offsets:
#	150
#	13052
#	39522
#	63827
#	75047
#	87252
#	104900
#	118880
#	142931
#	158342
#	173360
#	187922
#	213049
#	236797
#	257078
#	281340
#	306291
#	335220
#
# Disc length: 4680 seconds
#
# Revision: 1
# Processed by: cddbd v1.5.2PL0 Copyright (c) Steve Scherf et al.
# Submitted via: audiograbber 1.83.01
#
DISCID=e8124612
DTITLE=Bill Ramsey - Souvenirs, Souvenirs - CD 3 - Ich liebe den Swing !
DYEAR=2007
DGENRE=Blues
TTITLE0=(Get Your Kicks) On Route 66
TTITLE1=All Blues
TTITLE2=(Sittin' On ) The Dock Of The Bay
TTITLE3=But Not For Me
TTITLE4=Fly Me To The Moon (In Other Words)
TTITLE5=Gone With The Wind
TTITLE6=Kansas City
TTITLE7=St. Louis Blues
TTITLE8=C.C. Rider
TTITLE9=Caldonia (What Makes Your Big Head So Hard ?)
TTITLE10=Take Another Step
TTITLE11=The Midnight Sun Will Never Set
TTITLE12=Three Times A Lady
TTITLE13=Where Or When
TTITLE14=I'd Rather Be A Gambler
TTITLE15=Skylark
TTITLE16=It's The Little Things That Count
TTITLE17=Just The Way You Are
EXTD=
EXTT0=
EXTT1=
EXTT2=
EXTT3=
EXTT4=
EXTT5=
EXTT6=
EXTT7=
EXTT8=
EXTT9=
EXTT10=
EXTT11=
EXTT12=
EXTT13=
EXTT14=
EXTT15=
EXTT16=
EXTT17=
PLAYORDER=
